<svg width="887" height="1055" viewBox="0 0 887 1055" fill="none" xmlns="http://www.w3.org/2000/svg">
<path d="M144 1046.63C171.666 1050.17 199.87 1052 228.5 1052C592.179 1052 887 757.18 887 393.5C887 29.8205 592.179 -265 228.5 -265C199.87 -265 171.666 -263.173 144 -259.629C116.334 -263.173 88.1302 -265 59.5 -265C-304.18 -265 -599 29.8205 -599 393.5C-599 757.18 -304.18 1052 59.5 1052C88.1302 1052 116.334 1050.17 144 1046.63Z" fill="#2F6B5C"/>
<path d="M42 1034.11H263V1051.11L225 1053L144 1054.5L82 1053L42 1051.77V1034.11Z" fill="#2F6B5C"/>
</svg>
