<svg width="32" height="32" viewBox="0 0 32 32" fill="none" xmlns="http://www.w3.org/2000/svg">
<path d="M1.5625 4.5625V30.4375H10.4375V4.5625H1.5625ZM11.5625 4.5625V30.4375H20.4375V4.5625H11.5625ZM21.5625 4.5625V30.4375H30.4375V4.5625H21.5625ZM2.4375 7H3.5625V8.4375H8.4375V7H9.5625V9.5625H2.4375V7ZM12.4375 7H13.5625V8.4375H18.4375V7H19.5625V9.5625H12.4375V7ZM22.4375 7H23.5625V8.4375H28.4375V7H29.5625V9.5625H22.4375V7ZM2.4375 11H3.5625V12.4375H8.4375V11H9.5625V13.5625H2.4375V11ZM12.4375 11H13.5625V12.4375H18.4375V11H19.5625V13.5625H12.4375V11ZM22.4375 11H23.5625V12.4375H28.4375V11H29.5625V13.5625H22.4375V11ZM4 17.4375C4.85625 17.4375 5.5625 18.1438 5.5625 19C5.5625 19.8562 4.85625 20.5625 4 20.5625C3.14375 20.5625 2.4375 19.8562 2.4375 19C2.4375 18.1438 3.14375 17.4375 4 17.4375ZM14 17.4375C14.8562 17.4375 15.5625 18.1438 15.5625 19C15.5625 19.8562 14.8562 20.5625 14 20.5625C13.1438 20.5625 12.4375 19.8562 12.4375 19C12.4375 18.1438 13.1438 17.4375 14 17.4375ZM24 17.4375C24.8563 17.4375 25.5625 18.1438 25.5625 19C25.5625 19.8562 24.8563 20.5625 24 20.5625C23.1437 20.5625 22.4375 19.8562 22.4375 19C22.4375 18.1438 23.1437 17.4375 24 17.4375ZM4 18.5625C3.75187 18.5625 3.5625 18.75 3.5625 19C3.5625 19.25 3.75187 19.4375 4 19.4375C4.24813 19.4375 4.4375 19.25 4.4375 19C4.4375 18.75 4.24813 18.5625 4 18.5625ZM14 18.5625C13.75 18.5625 13.5625 18.75 13.5625 19C13.5625 19.25 13.75 19.4375 14 19.4375C14.25 19.4375 14.4375 19.25 14.4375 19C14.4375 18.75 14.25 18.5625 14 18.5625ZM24 18.5625C23.75 18.5625 23.5625 18.75 23.5625 19C23.5625 19.25 23.75 19.4375 24 19.4375C24.25 19.4375 24.4375 19.25 24.4375 19C24.4375 18.75 24.25 18.5625 24 18.5625ZM3 25.4375H9V26.5625H3V25.4375ZM13 25.4375H19V26.5625H13V25.4375ZM23 25.4375H29V26.5625H23V25.4375ZM3 27.5625H9V28.6875H3V27.5625ZM13 27.5625H19V28.6875H13V27.5625ZM23 27.5625H29V28.6875H23V27.5625Z" fill="white"/>
</svg>
